<?xml version="1.0" encoding="UTF-8"?>
<svg version="1.1" xmlns="http://www.w3.org/2000/svg" width="184" height="140">
<path d="M0 0 C-5.88026855 5.40923929 -11.14084455 7.87342559 -18.796875 9.9921875 C-31.73924792 14.06429996 -42.21757435 24.54523668 -49 36 C-50.15760959 38.31521919 -51.10122193 40.56801227 -52 43 C-51.12818085 42.84112808 -50.25636169 42.68225616 -49.35812378 42.51856995 C-46.2921431 42.04511347 -43.36707041 41.80992179 -40.27001953 41.70288086 C-38.61898727 41.6429319 -38.61898727 41.6429319 -36.93460083 41.58177185 C-35.76251068 41.54318558 -34.59042053 41.5045993 -33.3828125 41.46484375 C-32.17051971 41.42186661 -30.95822693 41.37888947 -29.709198 41.33460999 C-25.84791676 41.19856612 -21.98647348 41.06796168 -18.125 40.9375 C-15.50259163 40.84606204 -12.8801956 40.75426928 -10.2578125 40.66210938 C-3.83867908 40.43729335 2.58059583 40.21693964 9 40 C8.52177361 42.59788903 8.08985811 44.80985082 6.95703125 47.20703125 C5.53674781 51.35194007 5.6618533 55.33505706 5.6875 59.6875 C5.68951416 60.60781006 5.69152832 61.52812012 5.69360352 62.47631836 C5.84159496 72.79938654 7.32993168 83.01964753 10 93 C6.82212459 94.0592918 4.57411057 94.11458939 1.23828125 94.09765625 C0.12001953 94.09443359 -0.99824219 94.09121094 -2.15039062 94.08789062 C-3.31763672 94.07951172 -4.48488281 94.07113281 -5.6875 94.0625 C-6.86634766 94.05798828 -8.04519531 94.05347656 -9.25976562 94.04882812 C-12.17322789 94.03703273 -15.08658863 94.0205727 -18 94 C-15.37174996 98.87420917 -13.28031737 100.17920091 -8 102 C-4.87434493 102.84583139 -2.10014743 103.0181134 1.109375 102.89453125 C12.93962099 102.57723037 12.93962099 102.57723037 16.69775391 105.17236328 C20.58065955 109.08147822 23.26192058 113.78576174 25 119 C-7.67 119 -40.34 119 -74 119 C-74 119.66 -74 120.32 -74 121 C-66.41 121 -58.82 121 -51 121 C-51 124.63 -51 128.26 -51 132 C-22.62 132.33 5.76 132.66 35 133 C34.67 132.01 34.34 131.02 34 130 C33.90695948 128.21071975 33.87207898 126.41816185 33.87060547 124.62646484 C33.86745331 123.52877777 33.86430115 122.4310907 33.86105347 121.30014038 C33.86408981 119.52348495 33.86408981 119.52348495 33.8671875 117.7109375 C33.86623077 116.49677155 33.86527405 115.28260559 33.86428833 114.03164673 C33.86360748 111.46445667 33.86545514 108.89726488 33.86962891 106.33007812 C33.87498768 102.38407563 33.86967591 98.43818649 33.86328125 94.4921875 C33.86394187 92.00260391 33.86522269 89.5130204 33.8671875 87.0234375 C33.86516327 85.83495209 33.86313904 84.64646667 33.86105347 83.42196655 C33.86578171 81.78489243 33.86578171 81.78489243 33.87060547 80.11474609 C33.87140106 79.14894623 33.87219666 78.18314636 33.87301636 77.18807983 C34 75 34 75 35 74 C37.84335048 73.90013025 40.65697163 73.86122119 43.5 73.875 C44.69689453 73.86919922 44.69689453 73.86919922 45.91796875 73.86328125 C51.87339233 73.87339233 51.87339233 73.87339233 53 75 C53.09881245 76.70789281 53.12798966 78.41986693 53.12939453 80.13061523 C53.13254669 81.22522568 53.13569885 82.31983612 53.13894653 83.44761658 C53.13591019 85.23505028 53.13591019 85.23505028 53.1328125 87.05859375 C53.13376923 88.27321793 53.13472595 89.4878421 53.13571167 90.73927307 C53.13639377 93.31421968 53.13453741 95.889168 53.13037109 98.46411133 C53.12502789 102.41686858 53.13031274 106.36951196 53.13671875 110.32226562 C53.13605788 112.81770859 53.13477654 115.31315147 53.1328125 117.80859375 C53.13483673 118.99819199 53.13686096 120.18779022 53.13894653 121.41343689 C53.13421829 123.0600808 53.13421829 123.0600808 53.12939453 124.73999023 C53.12859894 125.7096019 53.12780334 126.67921356 53.12698364 127.6782074 C53 130 53 130 52 132 C65.2 132.33 78.4 132.66 92 133 C92 133.99 92 134.98 92 136 C69.10428427 136.0700165 46.20858614 136.12295204 23.31278515 136.15543652 C12.68236403 136.17091912 2.05200934 136.19203522 -8.57836914 136.22631836 C-17.841558 136.25617811 -27.10469876 136.27556486 -36.36793441 136.28226548 C-41.27479263 136.28618356 -46.18151321 136.29542041 -51.08832741 136.31719017 C-55.70361069 136.33750127 -60.31869918 136.34384474 -64.9340229 136.33932304 C-66.63079638 136.34015066 -68.32757614 136.34614827 -70.02431107 136.35761642 C-72.33564786 136.37247675 -74.64624294 136.36897773 -76.95759583 136.36076355 C-78.25271497 136.36352893 -79.54783411 136.36629431 -80.88219929 136.36914349 C-84 136 -84 136 -85.91480923 134.65113354 C-87.60009838 132.08694159 -87.41013577 129.84773322 -87.44824219 126.80712891 C-87.47126404 125.52794586 -87.49428589 124.24876282 -87.51800537 122.93081665 C-87.52810647 121.52940196 -87.53771688 120.12798367 -87.546875 118.7265625 C-87.56628306 117.28224159 -87.58682915 115.83793557 -87.60845947 114.39364624 C-87.65086026 111.35897563 -87.68347811 108.32441369 -87.70849609 105.28955078 C-87.74046005 101.43552499 -87.79006063 97.5820042 -87.84641647 93.72826576 C-87.88917621 90.73909785 -87.92541826 87.74987933 -87.9595108 84.76060104 C-87.97584449 83.3422945 -87.99338019 81.9240012 -88.01222992 80.50572586 C-88.382145 50.86894467 -88.382145 50.86894467 -81.81640625 41.26953125 C-79.00022801 39.30123463 -76.18842201 39.2151329 -72.8125 38.8125 C-71.54019531 38.65394531 -70.26789063 38.49539062 -68.95703125 38.33203125 C-67.98121094 38.22246094 -67.00539063 38.11289062 -66 38 C-66.89203125 37.82984375 -67.7840625 37.6596875 -68.703125 37.484375 C-69.87359375 37.24203125 -71.0440625 36.9996875 -72.25 36.75 C-73.41015625 36.51796875 -74.5703125 36.2859375 -75.765625 36.046875 C-79.21862471 34.92923741 -80.70270657 33.75220302 -83 31 C-77.2133904 25.24763069 -77.2133904 25.24763069 -72.9375 24.375 C-66.08904655 25.83211776 -61.6470577 31.10546586 -57 36 C-54.41827155 32.79960851 -51.88978286 29.56425555 -49.39819336 26.29321289 C-47.27985261 23.51763814 -45.13889833 20.75975877 -43 18 C-42.44957031 17.27683594 -41.89914063 16.55367187 -41.33203125 15.80859375 C-32.49153126 4.73939628 -19.72618392 1.7154481 -6.33984375 -0.80078125 C-3.94963526 -1.00428815 -2.26996162 -0.72869438 0 0 Z M-75 54 C-75.22267708 57.37823416 -75.22267708 57.37823416 -74 61 C-68.17055824 65.49523241 -59.66084107 66.36615545 -52.625 67.6875 C-51.56539062 67.89955078 -50.50578125 68.11160156 -49.4140625 68.33007812 C-42.6260699 69.64857914 -35.89725439 70.51690045 -29 71 C-38.91110565 60.75852416 -45.60173203 54.2197584 -60.17626953 53.96142578 C-65.11806187 53.91892243 -70.05839158 53.94786111 -75 54 Z " fill="#3BA775" transform="translate(90,3)"/>
<path d="M0 0 C2.71154463 1.81953077 4.70356235 3.65015683 7 6 C6.39009109 9.55780196 5.4216319 12.6828589 4 16 C5.98 15.67 7.96 15.34 10 15 C10.25394531 14.22914062 10.50789063 13.45828125 10.76953125 12.6640625 C11.28580078 11.15972656 11.28580078 11.15972656 11.8125 9.625 C12.14894531 8.62726562 12.48539062 7.62953125 12.83203125 6.6015625 C14 4 14 4 17 2 C23.18738283 2.11898813 26.32853511 4.28189529 31 8 C30.8125 10.3125 30.8125 10.3125 30 13 C26.0659431 15.86113229 21.7700554 17.23599202 17.1875 18.6875 C16.49462891 18.91244141 15.80175781 19.13738281 15.08789062 19.36914062 C13.39370918 19.91828909 11.69709367 20.45991862 10 21 C10.67546875 21.33773438 11.3509375 21.67546875 12.046875 22.0234375 C16.03125 24.015625 20.015625 26.0078125 24 28 C24 29.65 24 31.3 24 33 C22.54119891 32.85892253 21.08296449 32.71197585 19.625 32.5625 C18.81289062 32.48128906 18.00078125 32.40007813 17.1640625 32.31640625 C15 32 15 32 13 31 C12.855625 31.86625 12.71125 32.7325 12.5625 33.625 C12 37 12 37 11.1875 40.0625 C11.0946875 41.5165625 11.0946875 41.5165625 11 43 C11.61875 43.70125 12.2375 44.4025 12.875 45.125 C18.09546431 52.18798112 16.0190205 63.52829693 14.9375 71.8125 C14.8024707 72.85349854 14.66744141 73.89449707 14.52832031 74.96704102 C12.70774247 87.59656569 8.87134856 98.5007706 0 108 C-0.68835938 108.73863281 -1.37671875 109.47726563 -2.0859375 110.23828125 C-4 112 -4 112 -6 112 C-6.64953636 98.32000418 -7.12228706 84.69615117 -7 71 C-13.93 71 -20.86 71 -28 71 C-27.979375 73.31 -27.95875 75.62 -27.9375 78 C-27.8904157 89.34501934 -28.46206669 100.67049496 -29 112 C-37.58687347 107.94206823 -42.05116594 99.9470403 -45.421875 91.390625 C-50.29268906 77.40350191 -53.62723164 60.36877193 -49 46 C-48.443125 45.46375 -47.88625 44.9275 -47.3125 44.375 C-46.6628125 43.694375 -46.6628125 43.694375 -46 43 C-46.19053578 40.10197397 -46.19053578 40.10197397 -47 37 C-47.33333333 35 -47.66666667 33 -48 31 C-48.70125 31.33 -49.4025 31.66 -50.125 32 C-53.26003116 33.09044562 -55.70563182 33.15322643 -59 33 C-59 31.35 -59 29.7 -59 28 C-54.7214529 25.81295111 -50.4740136 23.76249021 -46 22 C-45.67 21.67 -45.34 21.34 -45 21 C-45.52956299 20.83395264 -46.05912598 20.66790527 -46.60473633 20.49682617 C-49.01045776 19.73658339 -51.41140488 18.96222405 -53.8125 18.1875 C-55.06256836 17.79594727 -55.06256836 17.79594727 -56.33789062 17.39648438 C-57.14033203 17.13544922 -57.94277344 16.87441406 -58.76953125 16.60546875 C-59.50792236 16.36981201 -60.24631348 16.13415527 -61.00708008 15.89135742 C-63.23088303 14.89673478 -64.47557833 13.89202541 -66 12 C-66.1875 9.625 -66.1875 9.625 -65 7 C-61.30820543 3.63894732 -58.20225802 2.0394183 -53.1875 1.875 C-50 3 -50 3 -48.1875 5.125 C-46.84862856 8.36647821 -45.86589378 11.60303211 -45 15 C-43.02 15.33 -41.04 15.66 -39 16 C-39.4640625 14.9171875 -39.4640625 14.9171875 -39.9375 13.8125 C-40.92560539 11.19692691 -41.5287754 8.74881018 -42 6 C-30.32413539 -5.94739635 -14.6493613 -6.20576281 0 0 Z M-39 26 C-38.56555024 35.99234453 -31.89437201 44.18712175 -25 51 C-21.94540718 53.52003908 -20.64839306 53.97553234 -16.6875 54.125 C-8.42293016 51.60360581 -3.75288806 44.9529341 0.58984375 37.80078125 C2.56425748 33.87930024 3.36091627 30.33156752 4 26 C0.88765931 25.5331489 -1.26485001 25.56148948 -4.00390625 27.1953125 C-7.00712537 29.46339829 -9.83409636 31.84989671 -12.625 34.375 C-15.7274432 36.4977243 -17.28809779 36.44232741 -21 36 C-23.703125 34.06640625 -23.703125 34.06640625 -26.25 31.5625 C-30.45088285 27.13544594 -30.45088285 27.13544594 -36.125 25.9375 C-37.07375 25.958125 -38.0225 25.97875 -39 26 Z " fill="#3BA775" transform="translate(151,5)"/>
</svg>
