<svg version="1.2" xmlns="http://www.w3.org/2000/svg" viewBox="0 0 20 20" width="20" height="20"><style>.a{fill:#292d32}</style><path class="a" d="m20 10c0-5.5-4.5-10-10-10-5.5 0-10 4.5-10 10 0 2.9 1.3 5.5 3.2 7.3q0 0.1 0 0.1 0.2 0.1 0.3 0.2 0.1 0.1 0.2 0.2 0.3 0.2 0.6 0.4 0.1 0.1 0.2 0.1 0.3 0.2 0.6 0.4 0.1 0.1 0.2 0.1 0.3 0.2 0.6 0.3 0.2 0.1 0.3 0.1 0.3 0.2 0.6 0.3 0.2 0 0.3 0.1 0.3 0.1 0.7 0.2 0.1 0 0.2 0 0.4 0.1 0.9 0.1 0 0 0.1 0.1 0.5 0 1 0 0.5 0 1 0 0.1-0.1 0.1-0.1 0.5 0 0.9-0.1 0.1 0 0.2 0 0.4-0.1 0.7-0.2 0.1-0.1 0.3-0.1 0.3-0.1 0.6-0.3 0.1 0 0.3-0.1 0.3-0.1 0.6-0.3 0.1 0 0.2-0.1 0.3-0.2 0.6-0.4 0.1 0 0.2-0.1 0.3-0.2 0.6-0.4 0.1-0.1 0.1-0.2 0.2-0.1 0.4-0.2 0 0 0-0.1c1.9-1.8 3.2-4.4 3.2-7.3zm-5.1 5c-2.7-1.8-7.1-1.8-9.8 0q-0.7 0.4-1.1 1c-1.6-1.6-2.5-3.7-2.5-6 0-4.7 3.8-8.5 8.5-8.5 4.7 0 8.5 3.8 8.5 8.5 0 2.3-0.9 4.4-2.5 6q-0.4-0.6-1.1-1z"/><path class="a" d="m10 4.9c-2.1 0-3.7 1.7-3.7 3.8 0 2 1.5 3.7 3.7 3.7q0 0 0 0 0.1 0 0.1 0 0 0 0 0c2.1-0.1 3.6-1.7 3.6-3.7 0-2.1-1.6-3.8-3.7-3.8z"/></svg>